<?xml version="1.0" encoding="iso-8859-1"?>
<!-- Uploaded to: SVG Repo, www.svgrepo.com, Generator: SVG Repo Mixer Tools -->
<svg fill="#000000" height="800px" width="800px" version="1.1" id="Layer_1" xmlns="http://www.w3.org/2000/svg" xmlns:xlink="http://www.w3.org/1999/xlink" 
	 viewBox="0 0 512 512" xml:space="preserve">
<g>
	<g>
		<path d="M437.019,74.981C388.667,26.628,324.379,0,256,0S123.333,26.628,74.981,74.981C26.628,123.333,0,187.621,0,256
			s26.628,132.667,74.981,181.019C123.333,485.372,187.621,512,256,512s132.667-26.628,181.019-74.981S512,324.379,512,256
			S485.372,123.333,437.019,74.981z M256,495.832C123.756,495.832,16.168,388.244,16.168,256S123.756,16.168,256,16.168
			S495.832,123.756,495.832,256S388.244,495.832,256,495.832z"/>
	</g>
</g>
<g>
	<g>
		<path d="M393.853,142.022H323.33c-5.173,0-9.381,4.208-9.381,9.381v26.221c0,5.172,4.208,9.381,9.381,9.381h70.523
			c5.173,0,9.381-4.208,9.381-9.381v-26.221C403.234,146.23,399.026,142.022,393.853,142.022z M387.066,170.837h-56.948v-12.646
			h56.948V170.837z"/>
	</g>
</g>
<g>
	<g>
		<path d="M358.592,192.304c-49.816,0-90.344,41.023-90.344,91.446c0,50.424,40.529,91.446,90.344,91.446
			c35.395,0,68.891-22.488,83.353-55.959c0.37-0.856,0.908-3.962,0.908-4.671c0-4.465-3.618-8.084-8.084-8.084h-42.465
			c-2.974,0-5.707,1.633-7.117,4.25c-4.333,8.041-20.952,9.55-26.415,9.471c-0.06-0.001-0.12-0.002-0.18-0.002
			c-16.505,0-22.65-11.224-24.936-19.464h106.63c0.017,0,0.034-0.002,0.052-0.002c4.118,0.024,7.653-3.066,8.091-7.24
			c0.337-3.221,0.509-6.5,0.509-9.746C448.936,233.326,408.408,192.304,358.592,192.304z M432.746,284.572H324.226
			c-2.18,0-4.268,0.881-5.789,2.443c-1.522,1.562-2.349,3.672-2.292,5.852c0.028,1.093,0.421,10.983,5.478,21.193
			c7.113,14.364,20.209,22.285,36.882,22.312c0.198,0.003,0.467,0.006,0.801,0.006c5.245,0,26.542-0.822,37.245-13.726h25.426
			c-13.655,22.121-37.942,36.378-63.386,36.378c-40.901,0-74.175-33.77-74.175-75.278s33.275-75.278,74.175-75.278
			c40.901,0,74.175,33.77,74.175,75.278C432.767,284.024,432.749,284.299,432.746,284.572z"/>
	</g>
</g>
<g>
	<g>
		<path d="M184.953,173.283h-54.465c-4.465,0-8.084,3.62-8.084,8.084v41.422c0,4.465,3.62,8.083,8.084,8.083h54.465
			c14.798,0,26.837-12.039,26.837-26.837v-3.915C211.79,185.322,199.751,173.283,184.953,173.283z M195.622,204.036
			c0,5.883-4.786,10.669-10.669,10.669h-46.381v-25.253h46.381c5.883,0,10.669,4.786,10.669,10.669V204.036z"/>
	</g>
</g>
<g>
	<g>
		<path d="M177.721,261.813h-47.234c-4.465,0-8.084,3.62-8.084,8.084v51.967c0,4.465,3.62,8.084,8.084,8.084h47.234
			c18.786,0,34.068-15.283,34.068-34.068S196.507,261.813,177.721,261.813z M177.721,313.781h-39.15v-35.799h39.15
			c9.87,0,17.9,8.029,17.9,17.9C195.621,305.751,187.591,313.781,177.721,313.781z"/>
	</g>
</g>
<g>
	<g>
		<path d="M394.963,244.392c-4.93-8.687-15.196-19.035-36.12-19.116c-2.809-0.151-19.918-0.583-31.724,10.343
			c-7.284,6.742-10.978,16.092-10.978,27.788c0.001,4.464,3.62,8.083,8.085,8.083h68.072c2.163,0,4.236-0.867,5.755-2.406
			c1.519-1.54,2.358-3.624,2.328-5.787C400.369,262.316,400.104,253.448,394.963,244.392z M333.353,255.321
			c0.931-3.147,2.488-5.724,4.692-7.783c7.366-6.885,19.835-6.128,19.922-6.119c0.208,0.016,0.416,0.024,0.624,0.024
			c10.617,0,17.83,3.43,22.051,10.484c0.679,1.135,1.23,2.285,1.676,3.395H333.353z"/>
	</g>
</g>
<g>
	<g>
		<path d="M233.264,243.939c14.847-10.034,24.62-27.031,24.597-46.265c-0.037-30.613-26.053-55.652-56.666-55.652H83.734
			c-4.465,0-8.084,3.62-8.084,8.084v126.607c0,4.465,3.62,8.084,8.084,8.084c4.465,0,8.084-3.62,8.084-8.084V158.191h109.568
			c21.459,0,39.581,16.782,40.285,38.229c0.733,22.331-17.155,40.744-39.296,40.874c-4.345,0.026-8.122,3.382-8.311,7.724
			c-0.202,4.63,3.491,8.445,8.077,8.445h3.486c24.681,0,44.687,20.007,44.687,44.687v5.607c0,24.68-20.007,44.687-44.687,44.687
			H91.818v-38.89c0-4.465-3.62-8.084-8.084-8.084c-4.465,0-8.084,3.62-8.084,8.084v46.975c0,4.465,3.62,8.084,8.084,8.084h121.893
			c33.61,0,60.856-27.246,60.856-60.856v-5.606C266.484,274.537,252.968,254.024,233.264,243.939z"/>
	</g>
</g>
</svg>